<?xml version="1.0" standalone="no"?>
<!DOCTYPE svg PUBLIC "-//W3C//DTD SVG 20010904//EN"
 "http://www.w3.org/TR/2001/REC-SVG-20010904/DTD/svg10.dtd">
<svg version="1.0" xmlns="http://www.w3.org/2000/svg"
 width="1920.000000pt" height="1920.000000pt" viewBox="0 0 1920.000000 1920.000000"
 preserveAspectRatio="xMidYMid meet">

<g transform="translate(0.000000,1920.000000) scale(0.100000,-0.100000)"
fill="#000000" stroke="none">
<path d="M11040 13426 c-140 -41 -239 -142 -275 -282 -14 -54 -15 -183 -13
-1075 l3 -1014 24 -60 c34 -83 134 -184 214 -213 153 -57 298 -26 415 88 94
93 112 162 112 437 l0 212 813 3 812 3 66 31 c91 44 142 93 184 178 110 224
-7 477 -250 540 -51 14 -167 16 -842 16 l-782 0 -3 428 -3 428 -37 76 c-44 89
-95 138 -184 180 -75 35 -182 45 -254 24z"/>
<path d="M6050 12274 c-233 -63 -352 -314 -251 -530 41 -87 91 -138 179 -182
l76 -37 1963 -3 1963 -2 0 385 0 385 -1937 -1 c-1673 0 -1945 -2 -1993 -15z"/>
<path d="M7945 10730 c-78 -26 -151 -81 -197 -151 -59 -88 -68 -141 -68 -386
l0 -213 -818 -2 -817 -3 -67 -33 c-137 -67 -212 -187 -212 -342 0 -155 75
-275 212 -342 l67 -33 817 -3 818 -2 0 -213 c0 -245 9 -298 68 -386 105 -157
305 -213 477 -133 34 17 80 46 102 66 48 43 97 132 112 204 15 74 15 1610 0
1684 -15 72 -64 161 -112 204 -100 91 -258 125 -382 84z"/>
<path d="M9220 9600 l0 -380 1968 2 1967 3 67 33 c137 67 212 187 212 342 0
155 -75 275 -212 342 l-67 33 -1967 3 -1968 2 0 -380z"/>
<path d="M11040 8434 c-30 -8 -73 -26 -96 -39 -61 -36 -139 -126 -166 -193
l-23 -57 -3 -1014 c-2 -892 -1 -1021 13 -1075 61 -238 312 -359 531 -257 87
41 138 91 182 179 l37 76 3 238 4 238 792 0 c872 0 849 -2 949 62 161 102 221
322 135 491 -31 62 -114 144 -177 174 l-56 28 -822 3 -823 2 0 408 c0 308 -3
419 -14 457 -37 142 -139 243 -281 279 -72 19 -113 19 -185 0z"/>
<path d="M6023 7276 c-59 -19 -103 -48 -156 -105 -58 -62 -83 -112 -98 -195
-35 -189 82 -375 270 -430 49 -14 252 -16 1998 -16 l1943 0 0 380 0 380 -1957
-1 c-1582 0 -1966 -3 -2000 -13z"/>
</g>
</svg>
